<svg xmlns="http://www.w3.org/2000/svg" xmlns:xlink="http://www.w3.org/1999/xlink" width="40" height="100"
     viewBox="0 0 40 100">
    <symbol id="a">
        <path fill="#fff"
              d="M21.4 32.4V21h3.8l.6-4.4h-4.4v-2.8c0-1.3.4-2.2 2.2-2.2H26v-4c-.4-.1-1.8-.2-3.4-.2-3.4 0-5.7 2.1-5.7 5.9v3.3H13V21h3.8v11.4h4.6z" />
    </symbol>
    <path fill="#fff"
          d="M20 40C9 40 0 31 0 20S9 0 20 0s20 9 20 20-9 20-20 20zm0-38.1C10 1.9 1.9 10 1.9 20S10 38.1 20 38.1 38.1 30 38.1 20 30 1.9 20 1.9z" />
    <circle cx="20" cy="80" r="20" fill="#3c5a99" />
    <use xlink:href="#a" />
    <use xlink:href="#a" y="60" />
</svg>