<svg width="22" height="22" viewBox="0 0 22 22" fill="none" xmlns="http://www.w3.org/2000/svg">
<path d="M11 22C17.0751 22 22 17.0751 22 11C22 4.92487 17.0751 0 11 0C4.92487 0 0 4.92487 0 11C0 17.0751 4.92487 22 11 22Z" fill="white"/>
<path d="M13.8701 0.378906C15.2777 0.75832 16.5734 1.40986 17.6976 2.27391L13.8701 6.10136V0.378906ZM0.379395 8.13044C0.758766 6.72283 1.4103 5.42711 2.27436 4.30292L6.10189 8.13044H0.379395ZM19.7269 4.30298C20.5909 5.42717 21.2424 6.7229 21.6218 8.13047H15.8994L19.7269 4.30298ZM0.379395 13.8696C0.758809 15.2772 1.41034 16.5729 2.27436 17.6971L6.10176 13.8696H0.379395ZM4.30322 19.726C5.42741 20.59 6.72314 21.2416 8.13071 21.621V15.8986L4.30322 19.726ZM4.30322 2.27387C5.42737 1.40986 6.72309 0.75832 8.13066 0.378906V6.10131L4.30322 2.27387ZM13.8701 21.621C15.2777 21.2416 16.5734 20.59 17.6976 19.726L13.8701 15.8986V21.621ZM19.7269 17.6971L15.8994 13.8696H21.6218C21.2424 15.2772 20.5909 16.573 19.7269 17.6971Z" fill="#33348E"/>
<path d="M21.9069 9.56523H12.4349H12.4348V0.0931133C11.9651 0.0319688 11.4863 0 11 0C10.5136 0 10.0349 0.0319688 9.56523 0.0931133V9.56514V9.56519H0.0931133C0.0319688 10.0349 0 10.5137 0 11C0 11.4864 0.0319688 11.9651 0.0931133 12.4348H9.56514H9.56519V21.9069C10.0349 21.968 10.5136 22 11 22C11.4863 22 11.9651 21.9681 12.4348 21.9069V12.4349V12.4348H21.9069C21.968 11.9651 22 11.4864 22 11C22 10.5137 21.968 10.0349 21.9069 9.56523ZM13.8696 13.8697L18.7782 18.7782C19.004 18.5526 19.2193 18.3166 19.4248 18.0721L15.2224 13.8696H13.8696V13.8697ZM8.13021 13.8696H8.13029V15.2222L3.92787 19.4248C3.68329 19.2193 3.44735 19.0039 3.22168 18.7782L8.13021 13.8696ZM8.13037 8.13047V8.13043L3.22179 3.2218C2.99603 3.44747 2.78067 3.68342 2.5752 3.92799L6.77767 8.13047H8.13037ZM18.7782 3.22187L13.8696 8.13053V6.77779L18.0721 2.57532C18.3166 2.78075 18.5526 2.99611 18.7782 3.22187Z" fill="#CC2229"/>
</svg>
