<svg xmlns="http://www.w3.org/2000/svg" xmlns:xlink="http://www.w3.org/1999/xlink" width="40" height="100"
     viewBox="0 0 40 100">
    <radialGradient id="a" cx="-3.081" cy="29.468" r="39.467" gradientTransform="rotate(-35.604 113.427 50.092)"
                    gradientUnits="userSpaceOnUse">
        <stop offset="0" stop-color="#fd5" />
        <stop offset=".1" stop-color="#fd5" />
        <stop offset=".5" stop-color="#ff543e" />
        <stop offset="1" stop-color="#c837ab" />
    </radialGradient>
    <symbol id="b">
        <path d="M20 7.5c-3.4 0-3.8 0-5.2.1-1.3.1-2.2.3-3 .6-.8.3-1.5.7-2.2 1.4-.7.7-1.1 1.4-1.4 2.2-.3.8-.5 1.7-.6 3-.1 1.3-.1 1.8-.1 5.2s0 3.8.1 5.2c.1 1.3.3 2.2.6 3 .3.8.7 1.5 1.4 2.2.7.7 1.4 1.1 2.2 1.4.8.3 1.7.5 3 .6 1.3.1 1.8.1 5.2.1 3.4 0 3.8 0 5.2-.1 1.3-.1 2.2-.3 3-.6.8-.3 1.5-.7 2.2-1.4.7-.7 1.1-1.4 1.4-2.2.3-.8.5-1.7.6-3 .1-1.3.1-1.8.1-5.2s0-3.8-.1-5.2c-.1-1.3-.3-2.2-.6-3-.3-.8-.7-1.5-1.4-2.2-.7-.7-1.4-1.1-2.2-1.4-.8-.3-1.7-.5-3-.6-1.4-.1-1.8-.1-5.2-.1zm-1.1 2.3H20c3.3 0 3.7 0 5.1.1 1.2.1 1.9.3 2.3.4.6.2 1 .5 1.4.9.4.4.7.9.9 1.4.2.4.4 1.1.4 2.3.1 1.3.1 1.7.1 5s0 3.7-.1 5c-.1 1.2-.3 1.9-.4 2.3-.2.6-.5 1-.9 1.4-.4.4-.9.7-1.4.9-.4.2-1.1.4-2.3.4-1.3.1-1.7.1-5.1.1-3.3 0-3.7 0-5.1-.1-1.2-.1-1.9-.3-2.3-.4-.6-.2-1-.5-1.4-.9s-.7-.9-.9-1.4c-.2-.4-.4-1.1-.4-2.3-.1-1.3-.1-1.7-.1-5.1s0-3.7.1-5c.1-1.2.3-1.9.4-2.3.2-.6.5-1 .9-1.4s.9-.7 1.4-.9c.4-.2 1.1-.4 2.3-.4h4zm7.8 2c-.8 0-1.5.7-1.5 1.5s.7 1.5 1.5 1.5 1.5-.7 1.5-1.5-.7-1.5-1.5-1.5zM20 13.6c-3.5 0-6.4 2.9-6.4 6.4s2.9 6.4 6.4 6.4c3.5 0 6.4-2.9 6.4-6.4s-2.9-6.4-6.4-6.4zm0 2.2c2.3 0 4.2 1.9 4.2 4.2 0 2.3-1.9 4.2-4.2 4.2-2.3 0-4.2-1.9-4.2-4.2 0-2.3 1.9-4.2 4.2-4.2z"
              fill="#fff" />
    </symbol>
    <path fill="#fff"
          d="M20 40C9 40 0 31 0 20S9 0 20 0s20 9 20 20-9 20-20 20zm0-38.1C10 1.9 1.9 10 1.9 20S10 38.1 20 38.1 38.1 30 38.1 20 30 1.9 20 1.9z" />
    <circle cx="20" cy="80" r="20" fill="url(#a)" />
    <use xlink:href="#b" />
    <use xlink:href="#b" y="60" />
</svg>