<svg width="48" height="32" viewBox="0 0 48 32" fill="none" xmlns="http://www.w3.org/2000/svg">
<path d="M0.5 4C0.5 2.07614 2.07614 0.5 4 0.5H44C45.9239 0.5 47.5 2.07614 47.5 4V28C47.5 29.9239 45.9239 31.5 44 31.5H4C2.07614 31.5 0.5 29.9239 0.5 28V4Z" fill="white" stroke="#D8DADF"/>
<path d="M14.8157 27.0638V25.5861C14.8157 25.0211 14.4676 24.6486 13.9021 24.6486C13.6039 24.6486 13.2869 24.7479 13.0632 25.0646C12.8892 24.7914 12.6468 24.6486 12.274 24.6486C11.9943 24.6362 11.7271 24.7666 11.5593 24.9963V24.6983H11.0933V27.0638H11.5593V25.7103C11.5593 25.2943 11.8079 25.0956 12.1497 25.0956C12.4977 25.0956 12.6903 25.3191 12.6903 25.7103V27.0638H13.1564V25.7103C13.1564 25.2943 13.405 25.0956 13.7468 25.0956C14.0886 25.0956 14.2874 25.3191 14.2874 25.7103V27.0638H14.8157ZM22.5028 24.7231H21.639V24.0091H21.1729V24.7231H20.682V25.1391H21.1729V26.2505C21.1729 26.7906 21.3718 27.1135 21.9621 27.1135C22.1859 27.1073 22.4034 27.0514 22.6022 26.9396L22.4531 26.5236C22.3226 26.6044 22.1672 26.6478 22.0119 26.6478C21.7633 26.6478 21.6452 26.4988 21.6452 26.2567V25.1267H22.509L22.5028 24.7231ZM26.8901 24.6486C26.6291 24.6424 26.3868 24.7728 26.25 24.9963V24.6983H25.784V27.0638H26.25V25.7351C26.25 25.344 26.4489 25.0956 26.7658 25.0956C26.8715 25.1018 26.9833 25.1143 27.089 25.1453L27.2381 24.7045C27.1263 24.6672 27.0082 24.6548 26.8901 24.6486ZM20.2594 24.8969C20.0108 24.7231 19.6691 24.6486 19.2962 24.6486C18.7058 24.6486 18.333 24.9218 18.333 25.3874C18.333 25.7786 18.6064 26.0021 19.1222 26.0766L19.3708 26.1014C19.6442 26.1511 19.812 26.2505 19.812 26.3746C19.812 26.5485 19.6131 26.6727 19.2465 26.6727C18.9668 26.6789 18.6872 26.5919 18.4573 26.4243L18.2087 26.7906C18.5567 27.039 18.973 27.0886 19.2216 27.0886C19.9114 27.0886 20.2843 26.7658 20.2843 26.325C20.2843 25.909 19.986 25.7103 19.4702 25.6358L19.2216 25.611C18.9979 25.5861 18.8053 25.5116 18.8053 25.3626C18.8053 25.1888 19.0041 25.0646 19.2713 25.0646C19.5696 25.0646 19.8617 25.1888 20.0108 25.2633L20.2594 24.8969ZM27.4121 25.8779C27.4121 26.5919 27.8782 27.1073 28.6426 27.1073C28.9906 27.1073 29.2329 27.0328 29.4815 26.8341L29.2329 26.4678C29.0589 26.6106 28.8414 26.6851 28.6177 26.6913C28.2013 26.6913 27.8782 26.3684 27.8782 25.9028C27.8782 25.4371 28.1951 25.1143 28.6177 25.1143C28.8414 25.1143 29.0589 25.195 29.2329 25.3378L29.4815 24.9714C29.2329 24.7728 28.9906 24.6983 28.6426 24.6983C27.903 24.6548 27.4121 25.1701 27.4121 25.8779ZM24.1061 24.6486C23.4163 24.6486 22.9502 25.1391 22.9502 25.8779C22.9502 26.6168 23.4412 27.1073 24.1558 27.1073C24.5038 27.1135 24.8456 27.0017 25.119 26.7844L24.8705 26.4367C24.6716 26.5919 24.4292 26.6789 24.1807 26.6851C23.8575 26.6851 23.5157 26.4864 23.466 26.0704H25.2185V25.8717C25.2185 25.1391 24.771 24.6486 24.1061 24.6486ZM24.0812 25.0956C24.4292 25.0956 24.6716 25.3191 24.6965 25.6855H23.4163C23.4909 25.3378 23.7146 25.0956 24.0812 25.0956ZM17.6991 25.8779V24.6983H17.233V24.9963C17.059 24.7728 16.8167 24.6486 16.4687 24.6486C15.8037 24.6486 15.3128 25.1639 15.3128 25.8779C15.3128 26.5919 15.8037 27.1073 16.4687 27.1073C16.8167 27.1073 17.059 26.9831 17.233 26.7596V27.0576H17.6991V25.8779ZM15.7975 25.8779C15.7975 25.4371 16.0709 25.0894 16.537 25.0894C16.9782 25.0894 17.2517 25.4371 17.2517 25.8779C17.2517 26.3436 16.9534 26.6664 16.537 26.6664C16.0709 26.6913 15.7975 26.325 15.7975 25.8779ZM34.018 24.6486C33.757 24.6424 33.5146 24.7728 33.3779 24.9963V24.6983H32.9118V27.0638H33.3779V25.7351C33.3779 25.344 33.5767 25.0956 33.8937 25.0956C33.9993 25.1018 34.1112 25.1143 34.2168 25.1453L34.366 24.7045C34.2479 24.6672 34.1298 24.6548 34.018 24.6486ZM32.1909 25.8779V24.6983H31.7249V24.9963C31.5509 24.7728 31.3085 24.6486 30.9605 24.6486C30.2956 24.6486 29.8046 25.1639 29.8046 25.8779C29.8046 26.5919 30.2956 27.1073 30.9605 27.1073C31.3085 27.1073 31.5509 26.9831 31.7249 26.7596V27.0576H32.1909V25.8779ZM30.2956 25.8779C30.2956 25.4371 30.569 25.0894 31.0351 25.0894C31.4763 25.0894 31.7497 25.4371 31.7497 25.8779C31.7497 26.3436 31.4514 26.6664 31.0351 26.6664C30.5628 26.6913 30.2956 26.325 30.2956 25.8779ZM36.9511 25.8779V23.7607H36.4851V24.9901C36.3111 24.7666 36.0687 24.6424 35.7207 24.6424C35.0558 24.6424 34.5648 25.1577 34.5648 25.8717C34.5648 26.5857 35.0558 27.1011 35.7207 27.1011C36.0687 27.1011 36.3111 26.9769 36.4851 26.7534V27.0514H36.9511V25.8779ZM35.0495 25.8779C35.0495 25.4371 35.323 25.0894 35.789 25.0894C36.2303 25.0894 36.5037 25.4371 36.5037 25.8779C36.5037 26.3436 36.2054 26.6664 35.789 26.6664C35.323 26.6913 35.0495 26.325 35.0495 25.8779Z" fill="black"/>
<path d="M28.2697 6.7674H19.7188V20.7061H28.2697V6.7674Z" fill="#FF5F00"/>
<path d="M20.5826 13.7398C20.5826 11.0203 21.8255 8.45613 23.957 6.76735C20.1041 3.74368 14.5236 4.40802 11.4972 8.25745C8.47085 12.1069 9.13578 17.6823 12.9887 20.706C16.2077 23.233 20.738 23.233 23.957 20.706C21.8255 19.0234 20.5826 16.453 20.5826 13.7398Z" fill="#EB001B"/>
<path d="M38.3309 13.7398C38.3371 18.6323 34.3661 22.5997 29.4692 22.6059C27.4806 22.6059 25.5479 21.9416 23.9819 20.7122C27.8348 17.6699 28.4873 12.0821 25.4423 8.23264C25.0135 7.69248 24.5226 7.20198 23.9819 6.77358C27.8286 3.74992 33.4029 4.42046 36.4293 8.26368C37.6659 9.82208 38.3309 11.753 38.3309 13.7398Z" fill="#F79E1B"/>
</svg>
