<svg width="48" height="32" viewBox="0 0 48 32" fill="none" xmlns="http://www.w3.org/2000/svg">
<path d="M0.5 4C0.5 2.07614 2.07614 0.5 4 0.5H44C45.9239 0.5 47.5 2.07614 47.5 4V28C47.5 29.9239 45.9239 31.5 44 31.5H4C2.07614 31.5 0.5 29.9239 0.5 28V4Z" fill="white" stroke="#D8DADF"/>
<path d="M0.5 4C0.5 2.07614 2.07614 0.5 4 0.5H44C45.9239 0.5 47.5 2.07614 47.5 4V28C47.5 29.9239 45.9239 31.5 44 31.5H4C2.07614 31.5 0.5 29.9239 0.5 28V4Z" fill="white" stroke="#D8DADF"/>
<path fill-rule="evenodd" d="M11.8136 13.0373C11.0443 12.2535 9.99629 11.817 8.90696 11.8262C6.63896 11.8262 4.80029 13.6913 4.80029 15.9921C4.80029 18.2929 6.63896 20.158 8.90696 20.158C9.99629 20.1667 11.0443 19.7299 11.8136 18.946C12.5816 18.162 13.007 17.0972 12.9936 15.9915C13.007 14.8859 12.5816 13.8211 11.8136 13.0373ZM6.58953 15.1507C6.58953 14.5994 6.9282 14.1127 7.71886 14.1127C8.3082 14.1127 8.83353 14.414 8.83353 15.0211C8.84553 15.3384 8.6562 15.6279 8.36286 15.7394C8.68686 15.856 8.89886 16.1738 8.8842 16.5226C8.8842 17.1388 8.3402 17.4959 7.7322 17.4959C6.94153 17.4959 6.50286 17.0232 6.50286 16.3371L7.24286 16.3374C7.24286 16.6896 7.43886 16.8935 7.72286 16.8935C7.8362 16.899 7.94686 16.8558 8.02686 16.7746C8.1082 16.6935 8.1522 16.5816 8.14686 16.4664C8.14686 16.1975 8.0242 16.0168 7.67753 16.0168H7.38953V15.4383H7.67753C8.00553 15.4383 8.10153 15.276 8.10153 15.0398C8.11086 14.9396 8.07486 14.841 8.0042 14.7708C7.93353 14.7007 7.83486 14.6667 7.7362 14.6782C7.42153 14.6782 7.32953 14.868 7.32953 15.1507H6.58953ZM9.92976 15.1927H9.12176L9.86576 16.3002L9.1071 17.4266H9.91643L10.2764 16.7776L10.6378 17.4266H11.4458L10.6924 16.3002L11.4324 15.1927H10.6244L10.2764 15.8231L9.92976 15.1927ZM23.9732 15.2063C23.9732 13.7928 24.6412 13.079 25.9559 13.079C27.2706 13.079 27.9346 13.7928 27.9346 15.2063V19.3903H29.2839V15.1076C29.2759 14.3571 29.1412 13.8262 28.8412 13.3278C28.4839 12.768 27.6319 11.8262 25.9559 11.8262C24.2759 11.8262 23.4266 12.768 23.0692 13.3278C22.7666 13.8262 22.6359 14.3571 22.6226 15.1076V19.3903H23.9732V15.2063ZM44.3054 11.8281L41.46 18.8626L40.7574 20.6032L40.368 21.5654H38.964L40.0534 18.8639L37.144 11.8281H38.628L40.7574 17.1174L42.8907 11.8281H44.3054ZM33.679 11.8364C35.6563 11.8364 37.2737 13.4863 37.2857 15.5144C37.2857 15.7089 37.2697 15.9912 37.2577 16.1323H31.4217C31.719 17.496 32.803 18.1001 33.7083 18.1001C34.4203 18.1001 35.1683 17.7763 35.5643 17.2961L35.5723 17.2851H37.0483L37.0283 17.334C36.2963 18.852 34.755 19.3869 33.655 19.3869C32.691 19.3869 31.7843 18.9859 31.0977 18.2583C30.423 17.5391 30.0483 16.5973 30.0483 15.6052C30.0483 13.4921 31.6443 11.8364 33.679 11.8364ZM33.6685 13.1218C32.5072 13.1218 31.6445 14.014 31.4645 14.9278H35.8672C35.6898 14.014 34.8272 13.1218 33.6685 13.1218ZM14.3999 15.6146C14.3999 13.4899 16.0359 11.8283 18.1252 11.8283C20.2079 11.8283 21.8439 13.4899 21.8439 15.6146C21.8439 17.7367 20.2079 19.401 18.1252 19.401C16.0359 19.401 14.3999 17.7367 14.3999 15.6146ZM15.7158 15.6146C15.7158 17.0104 16.7971 18.1044 18.1251 18.1044C19.4438 18.1044 20.5304 17.0104 20.5304 15.6146C20.5304 14.2188 19.4438 13.1222 18.1251 13.1222C16.7971 13.1222 15.7158 14.2188 15.7158 15.6146Z" fill="#81BC00"/>
</svg>
