<svg width="48" height="32" viewBox="0 0 48 32" fill="none" xmlns="http://www.w3.org/2000/svg">
<path d="M0.5 4C0.5 2.07614 2.07614 0.5 4 0.5H44C45.9239 0.5 47.5 2.07614 47.5 4V28C47.5 29.9239 45.9239 31.5 44 31.5H4C2.07614 31.5 0.5 29.9239 0.5 28V4Z" fill="white" stroke="#D8DADF"/>
<path d="M35.7818 22.2744L34.9837 27.3525C34.9679 27.4508 35.0441 27.5397 35.1437 27.5397H35.9465C36.0794 27.5397 36.1926 27.443 36.2134 27.3121L37.0004 22.3248C37.0159 22.2265 36.9398 22.1374 36.8404 22.1374H35.9418C35.8624 22.1377 35.7943 22.1958 35.7818 22.2744ZM34.6841 23.9368H33.7531C33.6734 23.9368 33.6056 23.9946 33.5931 24.0735L33.5521 24.3337L33.4871 24.2393C33.2853 23.9465 32.836 23.849 32.3873 23.849C31.358 23.849 30.4791 24.6286 30.3083 25.722C30.2194 26.2676 30.3457 26.7889 30.6549 27.1529C30.9389 27.4873 31.3447 27.6263 31.8278 27.6263C32.6569 27.6263 33.117 27.0937 33.117 27.0937L33.0754 27.3525C33.0597 27.4508 33.1361 27.5399 33.2355 27.5399H34.0742C34.2068 27.5399 34.3203 27.4433 34.3411 27.3124L34.8444 24.1242C34.8599 24.0254 34.7837 23.9368 34.6841 23.9368ZM33.3863 25.7491C33.2964 26.2815 32.8739 26.6383 32.3352 26.6383C32.065 26.6383 31.8488 26.5514 31.7096 26.3872C31.5723 26.2239 31.52 25.9916 31.564 25.7331C31.6481 25.2057 32.0769 24.837 32.6076 24.837C32.8723 24.837 33.0868 24.9245 33.2285 25.0909C33.3711 25.2581 33.4273 25.492 33.3863 25.7491ZM26.9264 22.1377H28.8714C29.522 22.1377 30.0125 22.3093 30.2888 22.6346C30.5407 22.9302 30.6237 23.3527 30.5368 23.89C30.3436 25.1188 29.6044 25.7386 28.3233 25.7386H27.7079C27.5748 25.7386 27.4615 25.8355 27.441 25.9667L27.2176 27.3805C27.2033 27.4724 27.1238 27.5399 27.0311 27.5399H26.0334C25.9337 27.5399 25.8576 27.4511 25.8731 27.3528L26.6596 22.3658C26.6801 22.2346 26.7938 22.1377 26.9264 22.1377ZM27.9407 24.6571C28.4564 24.6571 28.9896 24.6571 29.0959 23.9589C29.1347 23.7137 29.1034 23.5365 29.001 23.4169C28.8302 23.2168 28.4985 23.2168 28.1472 23.2168H28.013C27.9332 23.2168 27.8654 23.2749 27.853 23.3538L27.647 24.6571H27.9407Z" fill="#009BDE"/>
<path d="M13.0556 22.1385H15.0003C15.6509 22.1385 16.1411 22.3101 16.4179 22.6354C16.6693 22.931 16.7529 23.3535 16.666 23.8908C16.4725 25.1196 15.7331 25.7394 14.4522 25.7394H13.8368C13.7039 25.7394 13.5907 25.8363 13.57 25.9675L13.3576 27.3129C13.3369 27.4441 13.2236 27.5408 13.0908 27.5408H12.1623C12.0626 27.5408 11.9865 27.4519 12.002 27.3536L12.7885 22.3666C12.8092 22.2354 12.9225 22.1385 13.0556 22.1385ZM14.0696 24.6579C14.5854 24.6579 15.1185 24.6579 15.2248 23.9597C15.2633 23.7145 15.2323 23.5373 15.1301 23.4177C14.9593 23.2176 14.6277 23.2176 14.2767 23.2176H14.1422C14.0624 23.2176 13.9943 23.2757 13.9819 23.3546L13.7762 24.6579H14.0696ZM20.8131 23.9368H19.8821C19.8021 23.9368 19.7343 23.9946 19.7219 24.0735L19.6812 24.3338L19.6158 24.2394C19.4143 23.9465 18.9647 23.849 18.516 23.849C17.4873 23.849 16.6084 24.6286 16.4373 25.722C16.3482 26.2677 16.4747 26.7889 16.7839 27.153C17.0679 27.4874 17.4737 27.6263 17.9568 27.6263C18.7859 27.6263 19.246 27.0937 19.246 27.0937L19.2045 27.3525C19.189 27.4508 19.2648 27.54 19.3645 27.54H20.2033C20.3361 27.54 20.4493 27.4433 20.4704 27.3124L20.9734 24.1242C20.9889 24.0254 20.9128 23.9368 20.8131 23.9368ZM19.5153 25.7492C19.4254 26.2815 19.0029 26.6383 18.4642 26.6383C18.194 26.6383 17.9778 26.5514 17.8389 26.3873C17.701 26.2239 17.6493 25.9917 17.693 25.7331C17.7769 25.2058 18.2062 24.837 18.7369 24.837C19.0013 24.837 19.2158 24.9245 19.3578 25.0909C19.5001 25.2581 19.5563 25.492 19.5153 25.7492ZM25.7734 23.9367H24.8372C24.7478 23.9367 24.6639 23.981 24.6135 24.0549L23.3224 25.9567L22.7749 24.1294C22.7408 24.0148 22.6353 23.9367 22.516 23.9367H21.5959C21.4849 23.9367 21.4068 24.0461 21.4422 24.151L22.4731 27.1764L21.5037 28.5442C21.4278 28.6516 21.5048 28.8 21.6363 28.8H22.5717C22.66 28.8 22.743 28.7566 22.7937 28.6837L25.9069 24.1911C25.9811 24.0834 25.9041 23.9367 25.7734 23.9367Z" fill="#002F87"/>
<path d="M30.6935 8.14833C30.8926 6.87792 30.6925 6.01359 30.0051 5.23091C29.2488 4.36922 27.8825 4 26.1343 4H21.0595C20.7024 4 20.398 4.26019 20.3422 4.61309L18.229 18.0125C18.1874 18.2774 18.3918 18.516 18.6593 18.516H21.7922L21.5757 19.8875C21.5394 20.1188 21.7185 20.3279 21.9528 20.3279H24.5937C24.9061 20.3279 25.1721 20.1003 25.221 19.7917L25.2468 19.6574L25.7441 16.5029L25.7762 16.3286C25.8252 16.0199 26.0912 15.7919 26.4035 15.7919H26.7985C29.3567 15.7919 31.3598 14.7532 31.945 11.7468C32.1899 10.4911 32.0635 9.44245 31.4167 8.70559C31.2207 8.48332 30.9774 8.29897 30.6935 8.14833Z" fill="#009BDE"/>
<path d="M30.6935 8.14833C30.8926 6.87792 30.6925 6.01359 30.0051 5.23091C29.2488 4.36922 27.8825 4 26.1343 4H21.0595C20.7024 4 20.398 4.26019 20.3422 4.61309L18.229 18.0125C18.1874 18.2774 18.3918 18.516 18.6593 18.516H21.7922L22.5791 13.5255L22.5549 13.6824C22.6107 13.329 22.912 13.0693 23.2696 13.0693H24.7586C27.6829 13.0693 29.9725 11.8811 30.6419 8.44539C30.6614 8.34374 30.6782 8.24577 30.6935 8.14833Z" fill="#022169"/>
<path d="M23.425 8.16519C23.4582 7.95292 23.5946 7.77911 23.7779 7.69115C23.8611 7.65112 23.9543 7.629 24.0523 7.629H28.0305C28.5019 7.629 28.9412 7.66008 29.343 7.72486C29.4579 7.74329 29.5695 7.76436 29.678 7.78859C29.7865 7.81229 29.8919 7.83916 29.994 7.86918C30.0451 7.88393 30.0952 7.89973 30.1447 7.91605C30.3422 7.98189 30.526 8.05879 30.6946 8.14833C30.8937 6.87792 30.6935 6.01359 30.0062 5.23091C29.2488 4.36922 27.8825 4 26.1343 4H21.0595C20.7024 4 20.398 4.26019 20.3422 4.61309L18.229 18.0125C18.1874 18.2774 18.3918 18.516 18.6593 18.516H21.7922L22.5791 13.5255L23.425 8.16519Z" fill="#002F87"/>
</svg>
