<svg xmlns="http://www.w3.org/2000/svg" xmlns:xlink="http://www.w3.org/1999/xlink" width="40" height="100"
     viewBox="0 0 40 100">
    <symbol id="a">
        <path fill="#fff"
              d="M20.3 8c-6.5 0-10 4.4-10 9.2 0 2.2 1.2 5 3.1 5.9.3.1.4.1.5-.2.1-.2.3-1.2.4-1.7 0-.2 0-.3-.1-.4-.7-.8-1.2-2.2-1.2-3.5 0-3.3 2.5-6.6 6.8-6.6 3.7 0 6.3 2.5 6.3 6.2 0 4.1-2.1 6.9-4.8 6.9-1.5 0-2.6-1.2-2.2-2.7.4-1.8 1.3-3.7 1.3-5 0-1.2-.6-2.1-1.9-2.1-1.5 0-2.7 1.6-2.7 3.7 0 1.3.5 2.2.5 2.2s-1.5 6.4-1.8 7.5c-.5 2 .1 5.3.1 5.5 0 .2.2.2.3.1.1-.2 2-2.9 2.5-4.9.2-.7.9-3.6.9-3.6.5.9 1.9 1.7 3.5 1.7 4.6 0 7.9-4.2 7.9-9.4-.1-5-4.2-8.8-9.4-8.8" />
    </symbol>
    <path fill="#fff"
          d="M20 40C9 40 0 31 0 20S9 0 20 0s20 9 20 20-9 20-20 20zm0-38.1C10 1.9 1.9 10 1.9 20S10 38.1 20 38.1 38.1 30 38.1 20 30 1.9 20 1.9z" />
    <circle cx="20" cy="80" r="20" fill="#bd081c" />
    <use xlink:href="#a" />
    <use xlink:href="#a" y="60" />
</svg>