<svg xmlns="http://www.w3.org/2000/svg" xmlns:xlink="http://www.w3.org/1999/xlink" width="40" height="100"
     viewBox="0 0 40 100">
    <symbol id="a">
        <path d="M15.32 30.242c9.4 0 14.6-7.8 14.6-14.6v-.7c1-.7 1.9-1.6 2.6-2.7-.9.4-1.9.7-2.9.8 1.1-.6 1.9-1.6 2.3-2.8-1 .6-2.1 1-3.3 1.2-.9-1-2.3-1.6-3.7-1.6-2.8 0-5.1 2.3-5.1 5.1 0 .4 0 .8.1 1.2-4.3-.2-8-2.3-10.6-5.4-.4.8-.7 1.6-.7 2.6 0 1.8.9 3.4 2.3 4.3-.8 0-1.6-.3-2.3-.6v.1c0 2.5 1.8 4.6 4.1 5-.4.1-.9.2-1.4.2-.3 0-.7 0-1-.1.7 2 2.5 3.5 4.8 3.6-1.8 1.4-4 2.2-6.4 2.2-.4 0-.8 0-1.2-.1 2.2 1.5 4.9 2.3 7.8 2.3" fill="#fff"/>
    </symbol>
    <path fill="#fff"
          d="M20 40C9 40 0 31 0 20S9 0 20 0s20 9 20 20-9 20-20 20zm0-38.1C10 1.9 1.9 10 1.9 20S10 38.1 20 38.1 38.1 30 38.1 20 30 1.9 20 1.9z" />
    <circle cx="20" cy="80" r="20" fill="#1da1f2" />
    <use xlink:href="#a" />
    <use xlink:href="#a" y="60" />
</svg>