<svg width="48" height="32" viewBox="0 0 48 32" fill="none" xmlns="http://www.w3.org/2000/svg">
<path d="M0.5 4C0.5 2.07614 2.07614 0.5 4 0.5H44C45.9239 0.5 47.5 2.07614 47.5 4V28C47.5 29.9239 45.9239 31.5 44 31.5H4C2.07614 31.5 0.5 29.9239 0.5 28V4Z" fill="white" stroke="#D8DADF"/>
<path d="M10.3089 12.4174V25.072H37.2432V12.4174H10.3089ZM9.6001 11.7143H37.952V25.775H9.6001V11.7143Z" fill="#1E3C87"/>
<path d="M21.4222 13.9511C19.5628 14.8564 18.2852 16.7344 18.2852 18.9044C18.2852 21.0743 19.5628 22.9523 21.4222 23.8576H12.1631V13.9511H21.4222ZM26.4504 13.9511H35.7096V23.8576H26.4504C28.3099 22.9523 29.5875 21.0743 29.5875 18.9044C29.5875 16.7344 28.3099 14.8564 26.4504 13.9511Z" fill="#29B9AD"/>
<path d="M27.4044 9.62653H26.7948C25.3441 9.62653 24.1681 10.7473 24.1681 12.1299V17.9021C24.1681 18.2792 23.8474 18.5848 23.4517 18.5848C23.0561 18.5848 22.7354 18.2792 22.7354 17.9021V12.1299C22.7354 9.99319 24.5528 8.26108 26.7948 8.26108H27.2783L26.568 7.6447C26.2729 7.38867 26.2406 6.94113 26.4958 6.6451C26.751 6.34907 27.197 6.31664 27.4921 6.57267L29.5473 8.35603C29.7014 8.44302 29.8183 8.58345 29.8699 8.75052C29.9689 9.01746 29.9023 9.33297 29.67 9.53451L27.4921 11.4243C27.197 11.6803 26.751 11.6479 26.4958 11.3519C26.2406 11.0558 26.2729 10.6083 26.568 10.3523L27.4044 9.62653Z" fill="#1E3C87"/>
</svg>
