<svg width="48" height="32" viewBox="0 0 48 32" fill="none" xmlns="http://www.w3.org/2000/svg">
<path d="M0.5 4C0.5 2.07614 2.07614 0.5 4 0.5H44C45.9239 0.5 47.5 2.07614 47.5 4V28C47.5 29.9239 45.9239 31.5 44 31.5H4C2.07614 31.5 0.5 29.9239 0.5 28V4Z" fill="white" stroke="#D8DADF"/>
<path d="M29.0452 10.9938C30.0741 10.9938 30.8942 11.2024 31.4211 11.4011L31.0632 13.5067L30.8246 13.3925C30.3375 13.1938 29.7063 13.0051 28.8414 13.02C27.8025 13.02 27.3204 13.4521 27.3204 13.8543C27.3154 14.3112 27.887 14.6092 28.8116 15.0611C30.3425 15.7563 31.0483 16.5956 31.0384 17.703C31.0185 19.7243 29.2092 21.0254 26.4207 21.0254C25.2327 21.0154 24.0895 20.782 23.4682 20.5089L23.841 18.3337L24.184 18.4877C25.0538 18.8502 25.6155 18.9992 26.6792 18.9992C27.4397 18.9992 28.2598 18.7012 28.2648 18.0507C28.2698 17.6236 27.9218 17.3207 26.8879 16.8439C25.8789 16.3771 24.5468 15.5974 24.5617 14.2019C24.5766 12.3148 26.4257 10.9938 29.0452 10.9938ZM23.503 11.1875L21.8428 20.9112H19.1885L20.8487 11.1875H23.503ZM38.2457 11.1875L40.393 20.9012H37.9325C37.9325 20.9012 37.689 19.7888 37.6095 19.4462L37.492 19.4461C37.4849 19.4461 37.4775 19.4461 37.4699 19.4461L37.4221 19.446C37.4137 19.446 37.4052 19.446 37.3964 19.446L37.3416 19.4459C37.0377 19.4455 36.5496 19.4448 36.0473 19.4439L35.953 19.4438L35.8586 19.4436C35.2925 19.4427 34.7352 19.4418 34.4286 19.4414L34.3799 19.4413C34.3721 19.4413 34.3646 19.4413 34.3573 19.4413L34.316 19.4413C34.3096 19.4413 34.3033 19.4412 34.2973 19.4412L34.2146 19.4412C34.1757 19.5442 34.082 19.7901 33.9823 20.0514L33.9601 20.1096C33.8115 20.499 33.6579 20.9012 33.6579 20.9012H30.8743L34.811 11.992C35.0894 11.3613 35.5616 11.1875 36.1978 11.1875H38.2457ZM19.7502 11.1875L15.5749 20.8913L12.7666 20.8963L10.3906 12.3943C12.0756 13.2336 13.5817 14.9171 14.0639 16.4715L14.3422 17.8173L16.9369 11.1875H19.7502ZM36.4066 13.8245C36.3754 13.9098 36.3389 14.0069 36.3014 14.1054L36.284 14.1509C36.2811 14.1585 36.2782 14.1661 36.2753 14.1737L36.2579 14.2191C36.1479 14.5056 36.0436 14.77 36.0537 14.7532C36.0537 14.7532 35.7902 15.4291 35.52 16.1224L35.491 16.1967C35.2883 16.7171 35.0868 17.234 34.9949 17.4696H37.2019C37.0925 16.983 36.5855 14.6638 36.5855 14.6638L36.4066 13.8245Z" fill="#0E4595"/>
<path d="M11.9164 11.1876H7.64173L7.60693 11.3912C10.9322 12.1957 13.1342 14.1424 14.0488 16.4765L13.1193 12.007C12.9602 11.3962 12.493 11.2124 11.9164 11.1876Z" fill="#F2AE14"/>
</svg>
